<?xml version="1.0" standalone="no"?><!DOCTYPE svg PUBLIC "-//W3C//DTD SVG 1.1//EN" "http://www.w3.org/Graphics/SVG/1.1/DTD/svg11.dtd"><svg t="1706764092469" class="icon" viewBox="0 0 1024 1024" version="1.1" xmlns="http://www.w3.org/2000/svg" p-id="7507" xmlns:xlink="http://www.w3.org/1999/xlink" width="200" height="200"><path d="M269.356522 117.982609c22.26087 0 37.843478-28.93913 0-82.365217C233.73913 89.043478 244.869565 117.982609 269.356522 117.982609zM512 117.982609c22.26087 0 35.617391-28.93913 0-82.365217C478.608696 89.043478 489.73913 117.982609 512 117.982609zM756.869565 117.982609c22.26087 0 37.843478-28.93913 0-82.365217C721.252174 89.043478 734.608696 117.982609 756.869565 117.982609zM730.156522 144.695652l51.2 0 0 211.478261-51.2 0 0-211.478261ZM908.243478 391.791304 115.756522 391.791304c-62.330435 0-111.304348 48.973913-111.304348 111.304348l0 358.4c0 62.330435 48.973913 111.304348 111.304348 111.304348l794.713043 0c62.330435 0 111.304348-48.973913 111.304348-111.304348L1021.773913 503.095652C1019.547826 442.991304 970.573913 391.791304 908.243478 391.791304zM115.756522 436.313043l794.713043 0c37.843478 0 66.782609 28.93913 66.782609 66.782609l0 218.156522C934.956522 734.608696 890.434783 716.8 841.46087 667.826087c-51.2-51.2-104.626087-75.686957-162.504348-73.46087-89.043478 2.226087-149.147826 71.234783-151.373913 73.46087-126.886957 126.886957-240.417391 20.034783-244.869565 15.582609-84.591304-84.591304-169.182609-95.721739-233.73913-84.591304l0-93.495652C48.973913 467.478261 77.913043 436.313043 115.756522 436.313043zM908.243478 928.278261 115.756522 928.278261c-37.843478 0-66.782609-28.93913-66.782609-66.782609l0-218.156522c73.46087-15.582609 140.243478 8.904348 202.573913 71.234783 0 0 62.330435 60.104348 146.921739 60.104348 48.973913 0 104.626087-17.808696 160.278261-75.686957 0 0 51.2-55.652174 120.208696-57.878261 44.521739-2.226087 86.817391 20.034783 129.113043 60.104348 55.652174 55.652174 111.304348 80.13913 166.956522 69.008696l0 93.495652C975.026087 899.33913 946.086957 928.278261 908.243478 928.278261zM487.513043 144.695652l51.2 0 0 211.478261-51.2 0 0-211.478261ZM242.643478 144.695652l51.2 0 0 211.478261-51.2 0 0-211.478261Z" fill="#8a8a8a" p-id="7508"></path></svg>